<?xml version="1.0" encoding="UTF-8"?>
<!-- Mercado Pago Logo -->
<svg xmlns="http://www.w3.org/2000/svg" viewBox="0 0 64 64" width="64" height="64">
  <rect width="64" height="64" rx="8" fill="#00AEEF"/>
  <!-- Icono estilizado de manos - símbolo de Mercado Pago -->
  <g fill="#FFF">
    <!-- Mano izquierda -->
    <path d="M20 28c-2.2 0-4 1.8-4 4s1.8 4 4 4 4-1.8 4-4-1.8-4-4-4z"/>
    <path d="M26 24c0-3.3-2.7-6-6-6s-6 2.7-6 6c0 1.5.6 2.9 1.5 4-.9 1.1-1.5 2.5-1.5 4 0 3.3 2.7 6 6 6s6-2.7 6-6c0-1.5-.6-2.9-1.5-4 .9-1.1 1.5-2.5 1.5-4z"/>
    <!-- Mano derecha -->
    <path d="M44 28c-2.2 0-4 1.8-4 4s1.8 4 4 4 4-1.8 4-4-1.8-4-4-4z"/>
    <path d="M50 24c0-3.3-2.7-6-6-6s-6 2.7-6 6c0 1.5.6 2.9 1.5 4-.9 1.1-1.5 2.5-1.5 4 0 3.3 2.7 6 6 6s6-2.7 6-6c0-1.5-.6-2.9-1.5-4 .9-1.1 1.5-2.5 1.5-4z"/>
    <!-- Conexión en el centro -->
    <rect x="28" y="30" width="8" height="4" rx="2"/>
  </g>
</svg>
