<?xml version="1.0" encoding="UTF-8"?>
<!-- PayPal Logo -->
<svg xmlns="http://www.w3.org/2000/svg" viewBox="0 0 64 64" width="64" height="64">
  <rect width="64" height="64" rx="8" fill="#003087"/>
  <path opacity=".6" fill="#FFF" d="M43 20c-1.8-.8-4.2-1.2-7-1.2h-10c-.8 0-1.5.6-1.6 1.4L20 43.5c-.1.6.4 1.1 1 1.1h7.2l1.8-11.5-.1.3c.1-.8.8-1.4 1.6-1.4h3.3c6.5 0 11.6-2.6 13.1-10.3 0-.2.1-.4.1-.6-2.2-1.2-5-1.8-8-1.1z"/>
  <path fill="#FFF" d="M46.9 26c-1.5 7.7-6.6 10.3-13.1 10.3h-3.3c-.8 0-1.5.6-1.6 1.4l-2.3 14.8c-.1.5.3.9.8.9h5.8c.7 0 1.3-.5 1.4-1.2l.1-.3 1.1-7 .1-.4c.1-.7.7-1.2 1.4-1.2h.9c5.7 0 10.2-2.3 11.5-9 .5-2.8.2-5.1-1.1-6.7-.4-.5-.9-.9-1.5-1.2-.1-.1-.2-.3-.2-.4z"/>
  <path fill="#009CDE" d="M28 19.4c.1-.8.8-1.4 1.6-1.4h10c1.2 0 2.3.1 3.3.2.3 0 .6.1.9.2.3.1.6.2.9.3.2.1.4.1.5.2 2.2 1.2 3.8 3.2 4.3 6 .5 2.6.3 4.8-.7 6.7-1.1 2.2-3 3.8-5.3 4.7-1.4.6-3 .9-4.7.9h-3.3c-.8 0-1.5.6-1.6 1.4l-2.3 14.8-.1.3c-.1.7-.7 1.2-1.4 1.2h-5.8c-.5 0-.9-.4-.8-.9l4.3-27.3-.1.3.1-.3c.1-.8.5-1.4 1.1-1.6l.1-.1-1.4 8.8-.1.3c-.1.7-.7 1.2-1.4 1.2h-.9c-5.7 0-10.2-2.3-11.5-9-.5-2.8-.2-5.1 1.1-6.7.4-.5.9-.9 1.5-1.2z"/>
</svg>
